# xmcd
#
# Track frame offsets:
#	150
#	16143
#	30192
#	43253
#	57994
#	67480
#	81700
#	92440
#	104194
#	118234
#	132248
#	146659
#	159944
#	173709
#	185942
#	199478
#
# Disc length: 2856 seconds
#
# Revision: 1
# Processed by: cddbd v1.5.1PL2 Copyright (c) Steve Scherf et al.
# Submitted via: audiograbber 1.83.01
#
DISCID=f40b2610
DTITLE=Various Artist - In the Mood
DYEAR=1900
DGENRE=
TTITLE0=Glenn Miller - In The Mood
TTITLE1=Count Basie - Jumpin' At The Woodside
TTITLE2=Stan Kenton - Painted Rhythm
TTITLE3=Tommy Dorsey - On The Sunny Side Of The Street
TTITLE4=Tony Bennett whit The Count Basie Orchestra - Jeepers Creepers
TTITLE5=Benny Goodman - Stompin' At The Savoy
TTITLE6=Duke Ellington - Perdido
TTITLE7=Ella Fitzgerald whit Chick Webb and His Orchestra - A-Tisket, A-Tasket
TTITLE8=Bix Beiderbecke - Ostrich Walk
TTITLE9=Lionel Hampton (Featuring Ella Fitzgerald) - Flyin' Home #2
TTITLE10=Gene Krupa - Buggle Call Rag
TTITLE11=Count Basie - Lester Leaps In
TTITLE12=Stan Kenton - Zoot
TTITLE13=Duke Ellington - Mood Indigo
TTITLE14=Artie Shaw and His Orchestra - Dancing In The Dark
TTITLE15=Woody Herman - Apple Honey
EXTD=
EXTT0=
EXTT1=
EXTT2=
EXTT3=
EXTT4=
EXTT5=
EXTT6=
EXTT7=
EXTT8=
EXTT9=
EXTT10=
EXTT11=
EXTT12=
EXTT13=
EXTT14=
EXTT15=
PLAYORDER=
